<?xml version="1.0" standalone="no"?>
<!DOCTYPE svg PUBLIC "-//W3C//DTD SVG 20010904//EN"
 "http://www.w3.org/TR/2001/REC-SVG-20010904/DTD/svg10.dtd">
<svg version="1.0" xmlns="http://www.w3.org/2000/svg"
 width="480.000000pt" height="480.000000pt" viewBox="0 0 480.000000 480.000000"
 preserveAspectRatio="xMidYMid meet">
<metadata>
Created by potrace 1.11, written by Peter Selinger 2001-2013
</metadata>
<g transform="translate(0.000000,480.000000) scale(0.100000,-0.100000)"
fill="#000000" stroke="none">
<path d="M0 2400 l0 -2400 2400 0 2400 0 0 2400 0 2400 -2400 0 -2400 0 0
-2400z m2960 1387 c126 -30 277 -80 344 -114 26 -13 53 -22 60 -20 6 2 37 25
68 51 l57 46 81 0 c80 0 82 -1 76 -22 -3 -13 -45 -206 -93 -430 l-87 -408 -78
0 c-73 0 -78 1 -82 23 -70 372 -188 582 -381 677 -261 129 -603 35 -718 -199
-30 -61 -32 -73 -32 -171 0 -98 2 -109 30 -159 61 -110 170 -179 445 -279 201
-73 358 -136 414 -164 169 -86 300 -228 347 -377 28 -89 28 -254 0 -362 -76
-294 -318 -525 -674 -644 -170 -57 -263 -70 -507 -69 -194 0 -227 3 -341 27
-138 29 -301 82 -392 128 l-59 30 -31 -24 c-18 -13 -52 -41 -75 -61 -42 -35
-47 -36 -124 -36 -71 0 -79 2 -74 18 3 9 44 204 91 432 47 228 88 425 92 438
5 20 11 22 83 22 l78 0 7 -42 c12 -75 66 -230 110 -318 105 -209 263 -353 455
-412 96 -29 288 -31 389 -4 150 41 267 129 324 245 30 62 32 72 32 176 0 96
-3 116 -24 160 -35 70 -114 144 -207 192 -43 22 -175 75 -292 117 -116 42
-248 92 -292 111 -207 89 -329 215 -396 410 -23 67 -27 97 -27 185 0 122 17
200 69 310 130 275 430 476 799 535 140 22 401 13 535 -18z"/>
</g>
</svg>
